<svg xmlns="http://www.w3.org/2000/svg" version="1.1"
     viewBox="0 0 2400 800" opacity="0.56">
    <defs>
        <linearGradient x1="50%" y1="0%" x2="50%" y2="100%" id="sssurf-grad">
            <stop stop-color="#ff5722ff" stop-opacity="1" offset="0%" data-darkreader-inline-stopcolor=""
                  style="--darkreader-inline-stopcolor: #cb6342;"></stop>
            <stop stop-color="hsl(30, 100%, 70%)" stop-opacity="1" offset="100%" data-darkreader-inline-stopcolor=""
                  style="--darkreader-inline-stopcolor: #e2a05d;"></stop>
        </linearGradient>
    </defs>
    <g fill="url(#sssurf-grad)" transform="matrix(1,0,0,1,0,-314.1707458496094)">
        <path d="M 0 298.3414606326842 Q 450 462.5597506327336 600 340.6657329586321 Q 1050 455.85742146881654 1200 320.27856073242725 Q 1650 585.6040321532846 1800 341.29664320615586 Q 2250 510.83113269096356 2400 302.8700201673653 L 2400 800 L 0 800 L 0 339.04338018600197 Z"
              transform="matrix(1,0,0,1,0,73)" opacity="0.05"></path>
        <path d="M 0 298.3414606326842 Q 450 462.5597506327336 600 340.6657329586321 Q 1050 455.85742146881654 1200 320.27856073242725 Q 1650 585.6040321532846 1800 341.29664320615586 Q 2250 510.83113269096356 2400 302.8700201673653 L 2400 800 L 0 800 L 0 339.04338018600197 Z"
              transform="matrix(1,0,0,1,0,146)" opacity="0.17"></path>
        <path d="M 0 298.3414606326842 Q 450 462.5597506327336 600 340.6657329586321 Q 1050 455.85742146881654 1200 320.27856073242725 Q 1650 585.6040321532846 1800 341.29664320615586 Q 2250 510.83113269096356 2400 302.8700201673653 L 2400 800 L 0 800 L 0 339.04338018600197 Z"
              transform="matrix(1,0,0,1,0,219)" opacity="0.29"></path>
        <path d="M 0 298.3414606326842 Q 450 462.5597506327336 600 340.6657329586321 Q 1050 455.85742146881654 1200 320.27856073242725 Q 1650 585.6040321532846 1800 341.29664320615586 Q 2250 510.83113269096356 2400 302.8700201673653 L 2400 800 L 0 800 L 0 339.04338018600197 Z"
              transform="matrix(1,0,0,1,0,292)" opacity="0.41"></path>
        <path d="M 0 298.3414606326842 Q 450 462.5597506327336 600 340.6657329586321 Q 1050 455.85742146881654 1200 320.27856073242725 Q 1650 585.6040321532846 1800 341.29664320615586 Q 2250 510.83113269096356 2400 302.8700201673653 L 2400 800 L 0 800 L 0 339.04338018600197 Z"
              transform="matrix(1,0,0,1,0,365)" opacity="0.53"></path>
        <path d="M 0 298.3414606326842 Q 450 462.5597506327336 600 340.6657329586321 Q 1050 455.85742146881654 1200 320.27856073242725 Q 1650 585.6040321532846 1800 341.29664320615586 Q 2250 510.83113269096356 2400 302.8700201673653 L 2400 800 L 0 800 L 0 339.04338018600197 Z"
              transform="matrix(1,0,0,1,0,438)" opacity="0.64"></path>
        <path d="M 0 298.3414606326842 Q 450 462.5597506327336 600 340.6657329586321 Q 1050 455.85742146881654 1200 320.27856073242725 Q 1650 585.6040321532846 1800 341.29664320615586 Q 2250 510.83113269096356 2400 302.8700201673653 L 2400 800 L 0 800 L 0 339.04338018600197 Z"
              transform="matrix(1,0,0,1,0,511)" opacity="0.76"></path>
        <path d="M 0 298.3414606326842 Q 450 462.5597506327336 600 340.6657329586321 Q 1050 455.85742146881654 1200 320.27856073242725 Q 1650 585.6040321532846 1800 341.29664320615586 Q 2250 510.83113269096356 2400 302.8700201673653 L 2400 800 L 0 800 L 0 339.04338018600197 Z"
              transform="matrix(1,0,0,1,0,584)" opacity="0.88"></path>
        <path d="M 0 298.3414606326842 Q 450 462.5597506327336 600 340.6657329586321 Q 1050 455.85742146881654 1200 320.27856073242725 Q 1650 585.6040321532846 1800 341.29664320615586 Q 2250 510.83113269096356 2400 302.8700201673653 L 2400 800 L 0 800 L 0 339.04338018600197 Z"
              transform="matrix(1,0,0,1,0,657)" opacity="1.00"></path>
    </g>
</svg>